<mxfile host="Electron" agent="Mozilla/5.0 (Macintosh; Intel Mac OS X 10_15_7) AppleWebKit/537.36 (KHTML, like Gecko) draw.io/24.7.5 Chrome/126.0.6478.183 Electron/31.3.0 Safari/537.36" version="24.7.5">
  <diagram name="第 1 页" id="uJVSxDrOtPZbzUPVMfFV">
    <mxGraphModel dx="2195" dy="896" grid="1" gridSize="10" guides="1" tooltips="1" connect="1" arrows="1" fold="1" page="1" pageScale="1" pageWidth="827" pageHeight="1169" math="0" shadow="0">
      <root>
        <mxCell id="0" />
        <mxCell id="1" parent="0" />
        <mxCell id="n9f2Eey5IiEc5HQ6NBcW-24" style="rounded=0;orthogonalLoop=1;jettySize=auto;html=1;exitX=0.985;exitY=0.393;exitDx=0;exitDy=0;endArrow=none;endFill=0;exitPerimeter=0;entryX=0;entryY=0.25;entryDx=0;entryDy=0;" edge="1" parent="1" source="n9f2Eey5IiEc5HQ6NBcW-2" target="n9f2Eey5IiEc5HQ6NBcW-8">
          <mxGeometry relative="1" as="geometry">
            <mxPoint x="690" y="235" as="targetPoint" />
          </mxGeometry>
        </mxCell>
        <mxCell id="n9f2Eey5IiEc5HQ6NBcW-25" value="&lt;font style=&quot;font-size: 20px;&quot;&gt;1:n&lt;/font&gt;" style="edgeLabel;html=1;align=center;verticalAlign=middle;resizable=0;points=[];" vertex="1" connectable="0" parent="n9f2Eey5IiEc5HQ6NBcW-24">
          <mxGeometry x="0.1231" relative="1" as="geometry">
            <mxPoint as="offset" />
          </mxGeometry>
        </mxCell>
        <mxCell id="n9f2Eey5IiEc5HQ6NBcW-1" value="菜单模版" style="swimlane;childLayout=stackLayout;horizontal=1;startSize=50;horizontalStack=0;rounded=1;fontSize=14;fontStyle=0;strokeWidth=2;resizeParent=0;resizeLast=1;shadow=0;dashed=0;align=center;arcSize=4;whiteSpace=wrap;html=1;" vertex="1" parent="1">
          <mxGeometry x="310" y="150" width="160" height="140" as="geometry" />
        </mxCell>
        <mxCell id="n9f2Eey5IiEc5HQ6NBcW-2" value="&lt;span style=&quot;font-size: 14px;&quot;&gt;渠道&lt;/span&gt;&lt;div&gt;&lt;span style=&quot;font-size: 14px;&quot;&gt;菜单名称&lt;/span&gt;&lt;/div&gt;&lt;div&gt;&lt;span style=&quot;font-size: 14px;&quot;&gt;菜单状态&lt;/span&gt;&lt;/div&gt;" style="align=left;strokeColor=none;fillColor=none;spacingLeft=4;fontSize=12;verticalAlign=top;resizable=0;rotatable=0;part=1;html=1;" vertex="1" parent="n9f2Eey5IiEc5HQ6NBcW-1">
          <mxGeometry y="50" width="160" height="90" as="geometry" />
        </mxCell>
        <mxCell id="n9f2Eey5IiEc5HQ6NBcW-3" value="关联菜单" style="swimlane;childLayout=stackLayout;horizontal=1;startSize=50;horizontalStack=0;rounded=1;fontSize=14;fontStyle=0;strokeWidth=2;resizeParent=0;resizeLast=1;shadow=0;dashed=0;align=center;arcSize=4;whiteSpace=wrap;html=1;" vertex="1" parent="1">
          <mxGeometry x="310" y="407" width="160" height="140" as="geometry" />
        </mxCell>
        <mxCell id="n9f2Eey5IiEc5HQ6NBcW-4" value="&lt;span style=&quot;font-size: 14px;&quot;&gt;菜单模版id&lt;/span&gt;&lt;br&gt;&lt;div&gt;&lt;span style=&quot;font-size: 14px;&quot;&gt;菜单类型&lt;/span&gt;&lt;/div&gt;&lt;div&gt;&lt;span style=&quot;font-size: 14px;&quot;&gt;菜单id&lt;/span&gt;&lt;/div&gt;" style="align=left;strokeColor=none;fillColor=none;spacingLeft=4;fontSize=12;verticalAlign=top;resizable=0;rotatable=0;part=1;html=1;" vertex="1" parent="n9f2Eey5IiEc5HQ6NBcW-3">
          <mxGeometry y="50" width="160" height="90" as="geometry" />
        </mxCell>
        <mxCell id="n9f2Eey5IiEc5HQ6NBcW-5" value="绑定门店" style="swimlane;childLayout=stackLayout;horizontal=1;startSize=50;horizontalStack=0;rounded=1;fontSize=14;fontStyle=0;strokeWidth=2;resizeParent=0;resizeLast=1;shadow=0;dashed=0;align=center;arcSize=4;whiteSpace=wrap;html=1;" vertex="1" parent="1">
          <mxGeometry x="-60" y="130" width="160" height="180" as="geometry" />
        </mxCell>
        <mxCell id="n9f2Eey5IiEc5HQ6NBcW-6" value="&lt;span style=&quot;font-size: 14px;&quot;&gt;菜单模版id&lt;/span&gt;&lt;br&gt;&lt;div&gt;运营区域&lt;/div&gt;&lt;div&gt;&lt;span style=&quot;font-size: 14px;&quot;&gt;地理区域&lt;/span&gt;&lt;/div&gt;&lt;div&gt;&lt;span style=&quot;font-size: 14px;&quot;&gt;门店id&lt;/span&gt;&lt;/div&gt;&lt;div&gt;&lt;span style=&quot;font-size: 14px;&quot;&gt;全部门店/无门店&lt;/span&gt;&lt;/div&gt;" style="align=left;strokeColor=none;fillColor=none;spacingLeft=4;fontSize=12;verticalAlign=top;resizable=0;rotatable=0;part=1;html=1;" vertex="1" parent="n9f2Eey5IiEc5HQ6NBcW-5">
          <mxGeometry y="50" width="160" height="130" as="geometry" />
        </mxCell>
        <mxCell id="n9f2Eey5IiEc5HQ6NBcW-7" value="菜单规则" style="swimlane;childLayout=stackLayout;horizontal=1;startSize=50;horizontalStack=0;rounded=1;fontSize=14;fontStyle=0;strokeWidth=2;resizeParent=0;resizeLast=1;shadow=0;dashed=0;align=center;arcSize=4;whiteSpace=wrap;html=1;" vertex="1" parent="1">
          <mxGeometry x="700" y="150" width="157" height="170" as="geometry" />
        </mxCell>
        <mxCell id="n9f2Eey5IiEc5HQ6NBcW-8" value="&lt;div&gt;&lt;span style=&quot;font-size: 14px;&quot;&gt;菜单模版id&lt;/span&gt;&lt;/div&gt;&lt;span style=&quot;font-size: 14px;&quot;&gt;规则名称&lt;/span&gt;&lt;br&gt;&lt;div&gt;&lt;span style=&quot;font-size: 14px;&quot;&gt;状态&lt;/span&gt;&lt;/div&gt;&lt;div&gt;&lt;span style=&quot;font-size: 14px;&quot;&gt;优先级&lt;/span&gt;&lt;/div&gt;&lt;div&gt;&lt;span style=&quot;font-size: 14px;&quot;&gt;生效时间&lt;/span&gt;&lt;/div&gt;&lt;div&gt;&lt;span style=&quot;font-size: 14px;&quot;&gt;用户标签&lt;/span&gt;&lt;/div&gt;" style="align=left;strokeColor=none;fillColor=none;spacingLeft=4;fontSize=12;verticalAlign=top;resizable=0;rotatable=0;part=1;html=1;" vertex="1" parent="n9f2Eey5IiEc5HQ6NBcW-7">
          <mxGeometry y="50" width="157" height="120" as="geometry" />
        </mxCell>
        <mxCell id="n9f2Eey5IiEc5HQ6NBcW-9" value="菜单规则明细" style="swimlane;childLayout=stackLayout;horizontal=1;startSize=50;horizontalStack=0;rounded=1;fontSize=14;fontStyle=0;strokeWidth=2;resizeParent=0;resizeLast=1;shadow=0;dashed=0;align=center;arcSize=4;whiteSpace=wrap;html=1;" vertex="1" parent="1">
          <mxGeometry x="970" y="153" width="160" height="160" as="geometry" />
        </mxCell>
        <mxCell id="n9f2Eey5IiEc5HQ6NBcW-10" value="&lt;span style=&quot;font-size: 14px;&quot;&gt;菜单排序&lt;/span&gt;&lt;br&gt;&lt;div&gt;&lt;span style=&quot;font-size: 14px;&quot;&gt;菜单显示名称&lt;/span&gt;&lt;/div&gt;" style="align=left;strokeColor=none;fillColor=none;spacingLeft=4;fontSize=12;verticalAlign=top;resizable=0;rotatable=0;part=1;html=1;" vertex="1" parent="n9f2Eey5IiEc5HQ6NBcW-9">
          <mxGeometry y="50" width="160" height="110" as="geometry" />
        </mxCell>
        <mxCell id="n9f2Eey5IiEc5HQ6NBcW-14" value="菜单" style="swimlane;childLayout=stackLayout;horizontal=1;startSize=50;horizontalStack=0;rounded=1;fontSize=14;fontStyle=0;strokeWidth=2;resizeParent=0;resizeLast=1;shadow=0;dashed=0;align=center;arcSize=4;whiteSpace=wrap;html=1;" vertex="1" parent="1">
          <mxGeometry x="310" y="640" width="160" height="150" as="geometry" />
        </mxCell>
        <mxCell id="n9f2Eey5IiEc5HQ6NBcW-15" value="&lt;span style=&quot;font-size: 14px;&quot;&gt;菜单id&lt;/span&gt;&lt;div&gt;&lt;span style=&quot;font-size: 14px;&quot;&gt;名称&lt;br&gt;&lt;/span&gt;&lt;div&gt;&lt;span style=&quot;font-size: 14px;&quot;&gt;渠道&lt;/span&gt;&lt;/div&gt;&lt;div&gt;&lt;span style=&quot;font-size: 14px;&quot;&gt;菜单类型&lt;/span&gt;&lt;/div&gt;&lt;div&gt;&lt;span style=&quot;font-size: 14px;&quot;&gt;状态&lt;/span&gt;&lt;/div&gt;&lt;div&gt;&lt;span style=&quot;font-size: 14px;&quot;&gt;&lt;br&gt;&lt;/span&gt;&lt;/div&gt;&lt;/div&gt;" style="align=left;strokeColor=none;fillColor=none;spacingLeft=4;fontSize=12;verticalAlign=top;resizable=0;rotatable=0;part=1;html=1;" vertex="1" parent="n9f2Eey5IiEc5HQ6NBcW-14">
          <mxGeometry y="50" width="160" height="100" as="geometry" />
        </mxCell>
        <mxCell id="n9f2Eey5IiEc5HQ6NBcW-16" value="菜单商品" style="swimlane;childLayout=stackLayout;horizontal=1;startSize=50;horizontalStack=0;rounded=1;fontSize=14;fontStyle=0;strokeWidth=2;resizeParent=0;resizeLast=1;shadow=0;dashed=0;align=center;arcSize=4;whiteSpace=wrap;html=1;" vertex="1" parent="1">
          <mxGeometry x="-138" y="650" width="160" height="150" as="geometry" />
        </mxCell>
        <mxCell id="n9f2Eey5IiEc5HQ6NBcW-17" value="&lt;span style=&quot;font-size: 14px;&quot;&gt;商品SPU ID&lt;/span&gt;&lt;div&gt;&lt;span style=&quot;font-size: 14px;&quot;&gt;菜单id&lt;br&gt;&lt;/span&gt;&lt;div&gt;&lt;span style=&quot;font-size: 14px;&quot;&gt;菜单分类id&lt;/span&gt;&lt;/div&gt;&lt;div&gt;&lt;span style=&quot;font-size: 14px;&quot;&gt;商品排序&lt;/span&gt;&lt;span style=&quot;font-size: 14px;&quot;&gt;&lt;br&gt;&lt;/span&gt;&lt;/div&gt;&lt;/div&gt;" style="align=left;strokeColor=none;fillColor=none;spacingLeft=4;fontSize=12;verticalAlign=top;resizable=0;rotatable=0;part=1;html=1;" vertex="1" parent="n9f2Eey5IiEc5HQ6NBcW-16">
          <mxGeometry y="50" width="160" height="100" as="geometry" />
        </mxCell>
        <mxCell id="n9f2Eey5IiEc5HQ6NBcW-38" style="rounded=0;orthogonalLoop=1;jettySize=auto;html=1;exitX=0;exitY=0;exitDx=0;exitDy=0;entryX=0.75;entryY=1;entryDx=0;entryDy=0;endArrow=none;endFill=0;" edge="1" parent="1" source="n9f2Eey5IiEc5HQ6NBcW-18" target="n9f2Eey5IiEc5HQ6NBcW-17">
          <mxGeometry relative="1" as="geometry" />
        </mxCell>
        <mxCell id="n9f2Eey5IiEc5HQ6NBcW-39" value="&lt;span style=&quot;font-size: 20px;&quot;&gt;n:1&lt;/span&gt;" style="edgeLabel;html=1;align=center;verticalAlign=middle;resizable=0;points=[];" vertex="1" connectable="0" parent="n9f2Eey5IiEc5HQ6NBcW-38">
          <mxGeometry x="-0.1605" relative="1" as="geometry">
            <mxPoint as="offset" />
          </mxGeometry>
        </mxCell>
        <mxCell id="n9f2Eey5IiEc5HQ6NBcW-18" value="菜单分类" style="swimlane;childLayout=stackLayout;horizontal=1;startSize=50;horizontalStack=0;rounded=1;fontSize=14;fontStyle=0;strokeWidth=2;resizeParent=0;resizeLast=1;shadow=0;dashed=0;align=center;arcSize=4;whiteSpace=wrap;html=1;" vertex="1" parent="1">
          <mxGeometry x="80" y="910" width="160" height="170" as="geometry" />
        </mxCell>
        <mxCell id="n9f2Eey5IiEc5HQ6NBcW-19" value="&lt;span style=&quot;font-size: 14px;&quot;&gt;菜单id&lt;/span&gt;&lt;div&gt;&lt;span style=&quot;font-size: 14px;&quot;&gt;菜单分类id&lt;br&gt;&lt;/span&gt;&lt;div&gt;&lt;span style=&quot;font-size: 14px;&quot;&gt;分类名称&lt;br&gt;&lt;/span&gt;&lt;div&gt;&lt;span style=&quot;font-size: 14px;&quot;&gt;父分类id&lt;/span&gt;&lt;/div&gt;&lt;div&gt;&lt;span style=&quot;font-size: 14px;&quot;&gt;分类类型&lt;/span&gt;&lt;/div&gt;&lt;div&gt;&lt;span style=&quot;font-size: 14px;&quot;&gt;生效时间&lt;/span&gt;&lt;/div&gt;&lt;div&gt;&lt;span style=&quot;font-size: 14px;&quot;&gt;&lt;br&gt;&lt;/span&gt;&lt;/div&gt;&lt;/div&gt;&lt;/div&gt;" style="align=left;strokeColor=none;fillColor=none;spacingLeft=4;fontSize=12;verticalAlign=top;resizable=0;rotatable=0;part=1;html=1;" vertex="1" parent="n9f2Eey5IiEc5HQ6NBcW-18">
          <mxGeometry y="50" width="160" height="120" as="geometry" />
        </mxCell>
        <mxCell id="n9f2Eey5IiEc5HQ6NBcW-20" value="门店菜单" style="swimlane;childLayout=stackLayout;horizontal=1;startSize=50;horizontalStack=0;rounded=1;fontSize=14;fontStyle=0;strokeWidth=2;resizeParent=0;resizeLast=1;shadow=0;dashed=0;align=center;arcSize=4;whiteSpace=wrap;html=1;" vertex="1" parent="1">
          <mxGeometry x="700" y="640" width="160" height="150" as="geometry" />
        </mxCell>
        <mxCell id="n9f2Eey5IiEc5HQ6NBcW-21" value="&lt;span style=&quot;font-size: 14px;&quot;&gt;菜单id&lt;/span&gt;&lt;div&gt;&lt;span style=&quot;font-size: 14px;&quot;&gt;门店id&lt;br&gt;&lt;/span&gt;&lt;div&gt;&lt;span style=&quot;font-size: 14px;&quot;&gt;渠道&lt;/span&gt;&lt;/div&gt;&lt;div&gt;&lt;span style=&quot;font-size: 14px;&quot;&gt;状态&lt;/span&gt;&lt;/div&gt;&lt;div&gt;&lt;span style=&quot;font-size: 14px;&quot;&gt;&lt;br&gt;&lt;/span&gt;&lt;/div&gt;&lt;/div&gt;" style="align=left;strokeColor=none;fillColor=none;spacingLeft=4;fontSize=12;verticalAlign=top;resizable=0;rotatable=0;part=1;html=1;" vertex="1" parent="n9f2Eey5IiEc5HQ6NBcW-20">
          <mxGeometry y="50" width="160" height="100" as="geometry" />
        </mxCell>
        <mxCell id="n9f2Eey5IiEc5HQ6NBcW-22" style="rounded=0;orthogonalLoop=1;jettySize=auto;html=1;exitX=1;exitY=0.5;exitDx=0;exitDy=0;endArrow=none;endFill=0;fontSize=20;" edge="1" parent="1" source="n9f2Eey5IiEc5HQ6NBcW-6" target="n9f2Eey5IiEc5HQ6NBcW-2">
          <mxGeometry relative="1" as="geometry" />
        </mxCell>
        <mxCell id="n9f2Eey5IiEc5HQ6NBcW-23" value="&lt;font style=&quot;font-size: 20px;&quot;&gt;n:1&lt;/font&gt;" style="edgeLabel;html=1;align=center;verticalAlign=middle;resizable=0;points=[];" vertex="1" connectable="0" parent="n9f2Eey5IiEc5HQ6NBcW-22">
          <mxGeometry x="0.0186" y="1" relative="1" as="geometry">
            <mxPoint as="offset" />
          </mxGeometry>
        </mxCell>
        <mxCell id="n9f2Eey5IiEc5HQ6NBcW-26" style="rounded=0;orthogonalLoop=1;jettySize=auto;html=1;exitX=1;exitY=0.25;exitDx=0;exitDy=0;entryX=0;entryY=0.25;entryDx=0;entryDy=0;endArrow=none;endFill=0;" edge="1" parent="1" source="n9f2Eey5IiEc5HQ6NBcW-8" target="n9f2Eey5IiEc5HQ6NBcW-10">
          <mxGeometry relative="1" as="geometry" />
        </mxCell>
        <mxCell id="n9f2Eey5IiEc5HQ6NBcW-27" value="&lt;font style=&quot;font-size: 20px;&quot;&gt;1:1&lt;/font&gt;" style="edgeLabel;html=1;align=center;verticalAlign=middle;resizable=0;points=[];" vertex="1" connectable="0" parent="n9f2Eey5IiEc5HQ6NBcW-26">
          <mxGeometry x="0.0262" y="-1" relative="1" as="geometry">
            <mxPoint x="1" as="offset" />
          </mxGeometry>
        </mxCell>
        <mxCell id="n9f2Eey5IiEc5HQ6NBcW-28" style="edgeStyle=orthogonalEdgeStyle;rounded=0;orthogonalLoop=1;jettySize=auto;html=1;exitX=0.5;exitY=1;exitDx=0;exitDy=0;entryX=0.5;entryY=0;entryDx=0;entryDy=0;endArrow=none;endFill=0;fontSize=20;" edge="1" parent="1" source="n9f2Eey5IiEc5HQ6NBcW-2" target="n9f2Eey5IiEc5HQ6NBcW-3">
          <mxGeometry relative="1" as="geometry" />
        </mxCell>
        <mxCell id="n9f2Eey5IiEc5HQ6NBcW-29" value="&lt;font style=&quot;font-size: 20px;&quot;&gt;1:n&lt;/font&gt;" style="edgeLabel;html=1;align=center;verticalAlign=middle;resizable=0;points=[];" vertex="1" connectable="0" parent="n9f2Eey5IiEc5HQ6NBcW-28">
          <mxGeometry x="-0.0142" relative="1" as="geometry">
            <mxPoint as="offset" />
          </mxGeometry>
        </mxCell>
        <mxCell id="n9f2Eey5IiEc5HQ6NBcW-30" style="edgeStyle=orthogonalEdgeStyle;rounded=0;orthogonalLoop=1;jettySize=auto;html=1;exitX=0.5;exitY=1;exitDx=0;exitDy=0;entryX=0.5;entryY=0;entryDx=0;entryDy=0;endArrow=none;endFill=0;" edge="1" parent="1" source="n9f2Eey5IiEc5HQ6NBcW-4" target="n9f2Eey5IiEc5HQ6NBcW-14">
          <mxGeometry relative="1" as="geometry" />
        </mxCell>
        <mxCell id="n9f2Eey5IiEc5HQ6NBcW-31" value="&lt;font style=&quot;font-size: 20px;&quot;&gt;1:1&lt;/font&gt;" style="edgeLabel;html=1;align=center;verticalAlign=middle;resizable=0;points=[];" vertex="1" connectable="0" parent="n9f2Eey5IiEc5HQ6NBcW-30">
          <mxGeometry x="-0.0394" relative="1" as="geometry">
            <mxPoint y="-1" as="offset" />
          </mxGeometry>
        </mxCell>
        <mxCell id="n9f2Eey5IiEc5HQ6NBcW-32" style="rounded=0;orthogonalLoop=1;jettySize=auto;html=1;exitX=1;exitY=0.25;exitDx=0;exitDy=0;entryX=0;entryY=0.25;entryDx=0;entryDy=0;endArrow=none;endFill=0;" edge="1" parent="1" source="n9f2Eey5IiEc5HQ6NBcW-15" target="n9f2Eey5IiEc5HQ6NBcW-21">
          <mxGeometry relative="1" as="geometry" />
        </mxCell>
        <mxCell id="n9f2Eey5IiEc5HQ6NBcW-34" value="&lt;font style=&quot;font-size: 20px;&quot;&gt;1:n&lt;/font&gt;" style="edgeLabel;html=1;align=center;verticalAlign=middle;resizable=0;points=[];" vertex="1" connectable="0" parent="n9f2Eey5IiEc5HQ6NBcW-32">
          <mxGeometry x="0.0928" y="-1" relative="1" as="geometry">
            <mxPoint as="offset" />
          </mxGeometry>
        </mxCell>
        <mxCell id="n9f2Eey5IiEc5HQ6NBcW-33" style="rounded=0;orthogonalLoop=1;jettySize=auto;html=1;exitX=-0.006;exitY=0.347;exitDx=0;exitDy=0;entryX=1;entryY=0.25;entryDx=0;entryDy=0;endArrow=none;endFill=0;dashed=1;dashPattern=8 8;exitPerimeter=0;" edge="1" parent="1" source="n9f2Eey5IiEc5HQ6NBcW-15" target="n9f2Eey5IiEc5HQ6NBcW-17">
          <mxGeometry relative="1" as="geometry" />
        </mxCell>
        <mxCell id="n9f2Eey5IiEc5HQ6NBcW-35" value="&lt;font style=&quot;font-size: 20px;&quot;&gt;n:1&lt;/font&gt;" style="edgeLabel;html=1;align=center;verticalAlign=middle;resizable=0;points=[];" vertex="1" connectable="0" parent="n9f2Eey5IiEc5HQ6NBcW-33">
          <mxGeometry x="-0.059" relative="1" as="geometry">
            <mxPoint as="offset" />
          </mxGeometry>
        </mxCell>
        <mxCell id="n9f2Eey5IiEc5HQ6NBcW-36" style="rounded=0;orthogonalLoop=1;jettySize=auto;html=1;exitX=0;exitY=1;exitDx=0;exitDy=0;entryX=1;entryY=0;entryDx=0;entryDy=0;endArrow=none;endFill=0;" edge="1" parent="1" source="n9f2Eey5IiEc5HQ6NBcW-15" target="n9f2Eey5IiEc5HQ6NBcW-18">
          <mxGeometry relative="1" as="geometry" />
        </mxCell>
        <mxCell id="n9f2Eey5IiEc5HQ6NBcW-37" value="&lt;span style=&quot;font-size: 20px;&quot;&gt;1:n&lt;/span&gt;" style="edgeLabel;html=1;align=center;verticalAlign=middle;resizable=0;points=[];" vertex="1" connectable="0" parent="n9f2Eey5IiEc5HQ6NBcW-36">
          <mxGeometry x="-0.248" y="-2" relative="1" as="geometry">
            <mxPoint as="offset" />
          </mxGeometry>
        </mxCell>
      </root>
    </mxGraphModel>
  </diagram>
</mxfile>
